<?xml version="1.0" encoding="UTF-8"?>
<svg version="1.1" viewBox="0 0 2048 630" width="2306" height="710" xmlns="http://www.w3.org/2000/svg">
<path transform="translate(342)" d="m0 0h30l24 3 21 5 27 9 20 8 23 12 12 8 16 12 14 12 23 23 11 14 10 13 9 15 8 16 9 23 7 23 6 29 2 17v47l-3 23-5 24-10 30-9 20-9 16-8 12 4 17 20 75 21 79 11 42h-68l-8-26-55-191-3-10 1-4 8-8 11-15 9-16 7-14 7-18 7-27 3-25v-24l-3-23-7-25-10-24-10-17-10-14-11-13-15-15-13-10-14-9-14-8-19-8-23-7-22-4-8-1h-37l-24 4-17 5-16 6-17 8-17 11-13 10-12 11-11 12-12 17-10 18-7 15-7 24-4 24-3 28-16 38-15 37-16 38-10 25h45v156h280l19 69v2h-368l-1-166-77-1 10-23 16-37 30-70 18-43 9-24 5-35 6-27 7-23 11-27 10-20 11-18 10-14 9-11 9-10 15-15 14-11 17-12 19-11 23-11 22-8 28-7 30-4z" fill="#07589C"/>
<path transform="translate(1084,171)" d="m0 0h141l27 110 18 74 16 64 16-70 17-75 15-66 8-35 1-2h91l-5 25-21 97-15 69-32 148-2 9-1 1h-136l-3-8-32-129-18-73-12-49v-4h-2l-1 11-22 109-28 140-1 3h-90l-1-3 21-101 18-86 11-54 14-67z" fill="#07599C"/>
<path transform="translate(341,89)" d="m0 0h18l19 2 21 5 18 6 19 9 16 10 14 11 13 12 9 10 11 15 10 17 9 21 5 21 3 19v31l-4 24-5 19-8 20-10 18-10 14-12 13-5 5 3 12 20 68 34 116 12 41v2h-70l-6-21-13-49-12-43-19-67-20-71-5-19 20-14 10-9 8-8 9-14 6-13 4-13 2-13v-25l-4-18-6-16-8-14-11-14-9-9-14-9-17-7-19-4h-25l-17 3-15 5-15 8-10 8-9 8-10 13-8 14-6 15-3 12-1 17-19 51-7 19h14v139h166l10 33 10 34v2h-255l-1-155-34-2 1-5 9-25 21-55 14-36 3-27 5-23 6-18 9-19 10-15 9-11 11-12 14-12 15-11 16-9 19-8 23-6 12-2z" fill="#07599C"/>
<path transform="translate(1477,171)" d="m0 0h164l5 1 26 1 23 4 20 6 16 7 10 6 9 8 7 10 6 14 3 16v27l-3 22-5 19-7 16-7 12-11 13-7 7-15 11-23 12-19 7-24 6-27 3h-89l-1 9-16 75-8 36-1 1h-98l1-8 15-73 27-130 21-101zm87 72-2 5-14 66-3 16 1 1h60l16-4 10-6 10-9 8-9 7-14 2-8-1-13-5-10-8-8-9-4-8-2-11-1z" fill="#07599C"/>
<path transform="translate(877,161)" d="m0 0h42l29 4 25 6 25 10 14 8 10 9 6 7 7 14 3 11 1 6v26l-3 11-1 1h-106v-18l-4-11-3-5-11-7-11-5-11-2h-19l-15 3-13 7-10 8-12 12-7 10-9 17-10 26-8 29-4 27-2 17v17l3 20 6 16 6 9 11 8 14 4h25l21-6 11-7 13-11 9-14 4-14 31-1h72v13l-5 15-8 16-8 11-12 14-11 10-18 13-20 12-17 8-22 7-23 4-19 2h-47l-26-3-18-4-17-6-16-9-12-11-10-14-10-18-7-18-4-18v-59l4-30 7-30 7-20 9-19 11-18 9-12 8-10 11-12 7-8 11-10 14-10 21-11 20-7 25-6 22-3z" fill="#07599C"/>
<path transform="translate(1873,267)" d="m0 0h22l15 4 10 6 10 9 9 9 9 12 6-21 2-8h91l-1 9-13 61-34 158-15 70-8 37-1 1h-91l7-36 17-85v-4l-14 15-17 13-14 6-10 3-15 2h-25l-18-3-13-5-11-7-8-9-8-13-5-11-5-19-1-6v-44l5-26 5-18 8-19 9-17 8-12 12-16 10-10 10-7 10-6 18-7 25-5zm23 57-14 3-9 6-5 5-7 9-7 12-8 21-7 34-1 3-1 18 2 14 7 14 9 6 3 1h22l13-4 9-6 7-7 8-14 6-15 7-22 3-10 2-18v-8l-3-15-6-14-6-7-8-4-11-2z" fill="#07599C"/>
<path transform="translate(342,196)" d="m0 0h20l15 4 12 6 9 7 8 8 9 15 4 13 1 5v22l-4 14-6 12-9 11-11 9-12 6-13 4-8 1h-10l-12-2-16-6-11-8-8-7-9-13-5-12-3-16v-9l3-16 6-14 9-12 7-7 14-9 15-5z" fill="#08599C"/>
</svg>
