<?xml version="1.0" encoding="UTF-8"?>
<svg version="1.1" viewBox="0 0 1754 1240" width="1754" height="1240" xmlns="http://www.w3.org/2000/svg">
<path transform="translate(175,270)" d="m0 0h52l1 259 1 1 1 7 4 10 4 6 5 5 8 4 6 2 9 1 1 1 14 1 1 1 28 1 1 1h109l1-1h31v-2l14-1 1-1 9-1 10-4 8-5 2-5h2v-2h2v-6l3-7 1-265h331v49l-276 1v102l265 1 1 1v47l-266 1-1 72-1 1-1 11-1 1-1 10h-2v6h-2v6l-5 9-4 4-2 4-5 3-3 3-4 2h-6l1 2h243l3 2 15 1 1 1 7 1 1 1 8 1 10 4 9 5 16 16 9 15 2 6v4h2v6h2l1 8 1 1 1 7 1 1v10h2l1 12 1 1v18h2v102l-1 1-1 16-1 1-1 13-1 1-1 10-1 1-1 7-3 7-3 12h-2v4h-2l-1 5-5 9-6 8-8 8-5 3-9 5h-6v2l-12 3-1 1-11 1-1 1-20 1-1 1h-229v-285h54v237l167-1 1-1 11-1 1-1 7-1 5-1v-2h4v-2h4v-2l8-7 2-2 1-4h2v-2h2v-4h2v-6l1-1 1-7 1-1 1-7 1-1 1-12 1-1 1-22h2l-1-71-1-1v-22h-2l-1-12-1-1-1-7-1-1v-8h-2l-2-7-3-5-4-6-4-4-5-3-9-5-6-2-2-1-9-1-1-1h-479l-1 1-22 1-2 2-7 1-6 4-12 12-6 12-2 6-1 7-2 3v7l-2 3-1 15-1 1-1 37-1 1-1 32h2l1 35 1 1 1 15 2 5v8l2 2 1 7 4 10 1 5h2v2h2v4h2v2h4v2h2v2l6 2 14 6 9 1 1 1 22 1 1 1h82l1-1 22-1 1-1 11-1 12-5 9-5 8-8 1-4h2v-6l2-3 1-4 1-1v-8l2-2 1-16 1-1v-17l-143-1v-47l1-1h194l1 1v80l-1 1-1 14h-2v10l-2 4-1 5-2 6-3 7-1 4h-2v4h-2v4h-2l-1 5-14 14-5 3-5 1v2h-4v2l-10 3-7 3-6 2-9 1-3 2-11 1-1 1h-22v2h-104v-2h-20l-1-1-11-1-3-2-9-1-7-3-11-3-5-3-4-1v-2h-2v-2h-4v-2h-2l-4-5-6-3-3-3v-4h-2v-2h-2v-2h-2v-4h-2l-3-8-3-5-3-11-2-4-1-5-2-9-1-1-1-11-1-1-1-14-1-1v-22h-2v-79h2v-24l1-1 1-14 1-1 1-9 2-4v-6l6-15 3-11 12-18 12-12 5-3 5-5 10-6 11-3 3-1-1-2h-8l-2-2-12-3-12-8-3-5-4-5-2-4v-3h-2l-3-12-1-1-1-7-1-1v-12h-2z" fill="#040405"/>
<path transform="translate(946,817)" d="m0 0h39v2h10l13 7 6 6 4 8 3 9v17l-2 2-3 9-4 6-5 5-5 3-7 3-7 1-1 1h-41l-1-1v-77zm12 13v53l1 1h27l7-2v-2l5-1 6-6v-4h2l2-7v-11l-3-7-6-8-5-3-7-3z" fill="#0F0F10"/>
<path transform="translate(1422,679)" d="m0 0h10l1 1v82l-1 1h-11l-1-5-3 1-1 2-7 2h-17l-9-5-8-8-3-5v-8l-2-2 1-5 1-2v-7l5-8 9-9 6-2h19l9 6v-27zm-24 34-6 4-7 7v18h2v2h2v2h2v2l3 2 6 2 5-1 9-3 4-6 3-7v-6l-2-2-2-7-5-5h-6v-2z" fill="#080809"/>
<path transform="translate(988,679)" d="m0 0h10l2 1v82l-1 1h-9l-1-1v-5l-11 6h-17l-7-3-4-1v-2h-2l-5-6-4-10v-19l5-9 6-6 9-5h19l6 4h2l1-26zm-21 34-7 2v2h-2v2h-2v2h-2l-2 5v14l4 6 6 4h6v2h5v-2h6l6-6v-4h2v-16l-9-9-4-2z" fill="#070708"/>
<path transform="translate(1569,413)" d="m0 0h12v83h-12l-1-5-2-1v2h-4v2h-4v2h-16l-7-2v-2h-4v-2h-2v-2h-2v-2h-2l-3-7-2-3v-23l6-8 7-7 6-2h21l8 4v-26zm-23 33-9 5-3 5-1 1v16l4 6 3 3 4 2h13l6-4 3-3 2-6v-12l-4-6-5-5-4-2z" fill="#09090A"/>
<path transform="translate(1431,413)" d="m0 0h12v83h-12v-6l-7 4-6 2h-14l-10-4-9-9-4-8v-18l4-10 7-7 8-4h22l9 6zm-25 33v2l-5 1-6 7-1 5-1 1v8l5 9 5 3 2 2h14l4-3v-2h2v-2h2v-2h2l1-8 1-4h-2v-6l-4-6-9-5z" fill="#0F0F10"/>
<path transform="translate(1121,546)" d="m0 0h11l1 1v82h-12l-1-5-4 3-6 2h-17l-10-4-6-6-5-11 1-20 3-7 10-10 6-2h20v2l5 1 1 3 2-1v-27zm-22 33-6 3v2h-2v2h-2v2h-2v4h-2v14l4 6 5 5 7 1 3 1v-2h6v-2h4v-2l4-2 3-6v-12l-6-8-3-3-5-3z" fill="#111112"/>
<path transform="translate(1137,684)" d="m0 0h23l10 4 6 4 3 3v3h-2v2h-2l-2 4-3 1-7-6-4-2h-21l-6 4-9 9-1 5-1 1v14l2 5 3 5 7 7 6 2h21l5-3 1-24 1-1h11l1 1v32l-6 4-1 1h-6v2l-7 2h-21l-10-4-8-5v-2h-2v-2h-2v-2h-2v-2h-2v-4h-2l-2-5-1-11-1-5h2v-12l5-9 10-10 8-4z" fill="#151516"/>
<path transform="translate(1327,813)" d="m0 0h12v83h-12v-6l-5 4-4 2h-20l-9-5-6-6-4-8v-22l5-9 6-6 8-4h20l9 6zm-20 33-7 2v2h-2v2l-4 2-1 5h-2v14h2l1 5 6 6 7 2 5-1 7-2 6-6v-4h2v-14h-2l-1-5-4-4h-2v-2l-7-2z" fill="#181819"/>
<path transform="translate(946,417)" d="m0 0h12v52h2l2 7 6 5 3 2h15l6-4 5-7 1-11 1-1 1-43h12v48h-2v12l-5 9-4 4-5 3-7 3h-20l-7-3-4-1-7-8-3-5-2-6-1-1v-54z" fill="#131314"/>
<path transform="translate(1465,702)" d="m0 0h19l10 6 6 6 4 8v15l-1 1h-45v2h2v4h2v2h2v2l5 1 6 2h6l7-3 4-4 4 1 4 4v5l-7 7h-6v2h-20l-7-3-8-6-3-5-4-6v-21l4-6 3-5 4-4zm6 11-9 5-4 6v3h33v-4h-2v-4h-2v-2h-2v-2h-6v-2z" fill="#040405"/>
<path transform="translate(946,550)" d="m0 0h55l1 1v11l-1 1h-43l1 22 38 1 1 1v10l-1 1-38 1-1 30h-12l-1-1v-76z" fill="#020203"/>
<path transform="translate(1030,702)" d="m0 0h21l6 4 7 7v10h2v40h-12v-4l-8 3-1 1h-18v-2l-5-1-5-3-3-5v-16h2v-2l10-7h27l-3-8-3-3-4-2h-10l-10 4-4 1-4-6-1-4h4v-2l5-2zm5 34-7 3-1 1v8l4 4h12l6-4 3-3 2-4v-5z" fill="#060607"/>
<path transform="translate(832,270)" d="m0 0h3v49l-276 1v102l265 1 1 1v47l-266 1-1 72-1 1-1 11-2 1 1-13 1-16 1-57 2-2h260l3 1v-45l-264-1-1-1v-105l1-2h275z" fill="#929292"/>
<path transform="translate(1249,702)" d="m0 0h20l9 4 5 5v4h2v48h-10v-6h-3l-2 4-4 2h-18l-7-3-6-6-2-6v-6h2v-6l6-6 6-3 25-1v-6l-4-4-4-2h-10l-10 4-4 1-3-3-2-4 1-4 7-4zm7 34-7 3-3 5 2 6 4 2h12l6-4 3-3v-8l-1-1z" fill="#060607"/>
<path transform="translate(1612,436)" d="m0 0h23l6 4 9 9v5h2v15h-46l3 8 4 4 4 2h17l6-6h3l5 5 1 4-6 6-4 2h-6v2h-16l-7-2v-2h-4v-2h-2v-2h-2v-2l-4-2-3-4-1-5-1-1v-19l6-10 5-5zm5 10-3 3-5 3-3 5 1 4h31l1-1v-5l-7-7-4-2z" fill="#0F0F10"/>
<path transform="translate(1165,569)" d="m0 0h20v2h6l11 11v6h2v14l-45 1 1 4 3 5 6 4 7 1 3 2v-2h8v-2h2v-2h4v-2l4 2 5 5-2 4-6 4-7 3h-19l-10-4-8-8-5-10v-16l2-2 1-5 4-6 5-5zm7 10-10 5v4h-2l-2 6h33v-6l-6-6-5-3z" fill="#19191A"/>
<path transform="translate(1025,569)" d="m0 0h20l7 3 10 10 2 6v14l-45 1 1 4 4 6 5 3 8 1v2l3-2 7-1 3-3 6-2 6 6-2 6-5 3-7 3h-19l-10-4-9-9-2-1-2-7v-18l4-10 7-7zm7 10-6 4-3 1-3 5-2 4 1 1h32v-4l-3-5-3-3-5-3z" fill="#181818"/>
<path transform="translate(1271,569)" d="m0 0h22l9 5 4 6 2 4v45h-12l-1-4-8 4h-16l-8-3-7-7v-14l4-6 3-3 4-2 28-1-1-5-3-5-5-3h-10l-3 2-6 2-1 2h-5l-3-5v-5l3-3zm7 33-9 4-1 1v7l3 3 4 2h10v-2l5-1 6-7-1-7z" fill="#161617"/>
<path transform="translate(1206,436)" d="m0 0h21v2h6l8 8 5 10v12l-1 1h-45l3 8 4 4 4 2h17l6-6 4 2 3 3v6h-2v2h-2v2h-4v2l-7 2h-16v-2h-6l-6-4-9-9v-6h-2v-20l5-9 6-6zm5 10-5 2-4 5-3 6 1 2h32l1-4-4-6-3-3-4-2z" fill="#141414"/>
<path transform="translate(1469,436)" d="m0 0h24l9 5 4 6 2 6v43h-12l-1-4-4 2h-6v2h-14l-10-4-3-2-2-5v-16h2v-2h2v-2h2v-2h4v-2h29v-7h-2v-4h-2v-2h-4v-2l-12 1-10 4-5 1-2-4v-6h2v-2h2v-2zm6 33-6 4-1 1v7l3 3h4v2h9l6-4 6-7-1-6z" fill="#0E0E0F"/>
<path transform="translate(1229,836)" d="m0 0h22l5 2v2h4v2h2v4h2l2 7v43h-12v-4l-3 2-6 2h-18l-9-5-4-6v-13l4-6 9-5 26-1v-5l-2-4-8-4h-7l-10 4-1 1h-6l-1-4h-2v-5l3-3zm9 33-7 3-4 1v8l5 5h13l6-4 3-5v-7l-1-1z" fill="#1A1A1B"/>
<path transform="translate(1373,836)" d="m0 0h20l9 5 8 8 2 4 1 7 1 1v10l-1 1-1 7-4 6-7 7-8 4h-20l-7-3-12-12-2-6v-18l3-7 2-2 1-4 5-2 4-4zm6 10v2h-4v2l-5 1-2 2v4h-2v4h-2v10h2l1 5 3 5 5 3h4v2h5l7-2 7-8 2-2 1-9-1-7-10-10-6-2z" fill="#1E1E1F"/>
<path transform="translate(1050,836)" d="m0 0h18l10 4 7 7 4 8v22l-5 9-6 6-10 4h-18l-10-4-7-7-4-8v-22l5-9 6-6zm7 10-7 2v2h-2v2l-4 2-3 6v13h2l1 5 4 4h2v2l7 2h5v-2h6l7-7v-4h2v-14h-2l-1-5-6-6-7-2z" fill="#1D1D1E"/>
<path transform="translate(1102,836)" d="m0 0h12l1 39 4 6 2 2 6 1v2l10-4 5-5 3-9v-31l1-1h12v60h-12l-1-5-8 5h-20l-5-2v-2h-2v-2h-2v-2h-2v-2h-2l-2-5z" fill="#030304"/>
<path transform="translate(1029,436)" d="m0 0h12l1 5 8-5h22l5 2v2h2v2h2v2h2v4h2l1 12 1 1v35h-12l-1-34-2-4v-5l-4-4-4-2-10-1v2l-5 2-5 5-1 8-1 1-1 32h-12z" fill="#0F0F10"/>
<path transform="translate(1305,702)" d="m0 0h8l1 1v5h3l1-3 8-3h18l8 5 2 4h2v4h2l1 8 1 1v39h-12l-1-3v-34l-2-4-3-5-7-3h-6l-7 3-3 3-2 4-1 39h-12v-60z" fill="#0A0A0B"/>
<path transform="translate(527,665)" d="m0 0h54v237l167-1 1-1 11-1 1-1h7l-4 3-11 2h-174l-1-236h-48l-1 281h228l-1 2h-229z" fill="#A7A7A7"/>
<path transform="translate(1310,436)" d="m0 0h25l7 3 1 5-4 6-5-1-6-2h-13l-4 4v5l2 2 7 1 1 1 10 1 10 4 5 8v9l-5 8h-2v2h-4v2l-7 2h-18v-2h-8l-6-4-1-5 4-6 5 1 5 3 9 1 4 1 10-4v-5l-2-2-6-2-12-1v-2h-6v-2l-5-1-4-5v-15l7-8z" fill="#131314"/>
<path transform="translate(1435,836)" d="m0 0h21v2h8l2 2v6l-2 4h-6l-7-3h-11l-6 4v5l2 2 6 2 9 1 1 1 8 1v2l5 1 1 5h2v15l-4 6-4 2h-6v2h-23l-10-4-3-3 2-6 3-3 5 1 4 2 7 1 1 1h9l6-4v-5l-2-2-7-1-1-1-10-1-10-4-5-7v-13l9-9z" fill="#1F1F20"/>
<path transform="translate(1123,436)" d="m0 0h14l5 13 4 8 2 5 4 8 2 9h2l2-10h2v-4h2l1-5 3-9 5-9 2-6h12v6h-2v6h-2l-1 5-4 8-3 9-4 6-3 10h-2v4h-2v4h-2v2h-12l-2-6-5-9v-4h-2v-6h-2l-3-8-4-10-5-9z" fill="#131314"/>
<path transform="translate(1217,569)" d="m0 0h11l1 1v5l5-4 4-2h11l1 1v11l-1 1-10 1-6 4-2 7h-2v35h-13v-59z" fill="#030304"/>
<path transform="translate(1196,702)" d="m0 0h9l1 1v5l6-3 5-3h11l1 1v11l-1 1-11 1-8 8-1 38-1 1h-11l-1-1v-58z" fill="#020203"/>
<path transform="translate(1258,436)" d="m0 0h12l1 4 8-4h12v12h-12v2h-2v2h-2v2h-2l-1 5-1 1v35l-1 1h-12z" fill="#131313"/>
<path transform="translate(1175,836)" d="m0 0h12v6l5-4 6-2h10v12l-10 1-6 4-3 8h-2v35h-12z" fill="#0F0F10"/>
<path transform="translate(1325,546)" d="m0 0h12v83h-12z" fill="#020203"/>
<path transform="translate(527,665)" d="m0 0h54v237l167-1 1-1 11-1 1-1h7l-4 3-11 2h-174l-1-236h-48l-3 1z" fill="#C1C1C0"/>
<path transform="translate(1104,436)" d="m0 0h12v60h-12z" fill="#030304"/>
<path transform="translate(1356,436)" d="m0 0h12v60h-12z" fill="#111"/>
<path transform="translate(301,779)" d="m0 0h194v1h-193v44l142 1 1 2v9h-1l-1-8-143-1v-47z" fill="#aaa"/>
<path transform="translate(504,270)" d="m0 0h3l-1 261-4 14-2 2v-5l3-7z" fill="#C5C5C4"/>
<path transform="translate(946,550)" d="m0 0h55l1 1v11l-1 1-44 1 1-4h42v-8l-52 1v73h10v3h-12l-1-1v-76z" fill="#B5B5B5"/>
<path transform="translate(1422,679)" d="m0 0h10l1 1v82l-1 1h-11l-1-5-3 1-1 2-7 2h-17l-9-5-8-8-3-5 1-5 2 2 3 8 8 7 9 3h13l8-3 3-3 4 1-1 5h8l1-2v-77l-8 1-1 28-3-1 1-3v-25z" fill="#989898"/>
<path transform="translate(946,817)" d="m0 0h39v2l-37 1v73l2 1h38l-1 2h-41l-1-1v-77z" fill="#bbb"/>
<path transform="translate(557,422)" d="m0 0 267 1 1 1v47l-2-1v-44l-1-1-264-1z" fill="#9F9F9F"/>
<path transform="translate(162,693)" d="m0 0 1 2-4 25-2 25-1 43 1 34 3 31 3 22-3-3-1-11-1-1-1-14-1-1v-22h-2v-79h2v-24l1-1 1-14 1-1 1-9z" fill="#9D9D9D"/>
<path transform="translate(1325,546)" d="m0 0h12v83h-12zm3 1-1 1-1 78 1 1h9v-79z" fill="#949494"/>
<path transform="translate(1146,836)" d="m0 0h12v60h-12l-1-5-8 5h-20l-1-2h16l9-3 3-3 4 1 1 5h6l1-56-9 1v28l-2 1v-31z" fill="#919191"/>
<path transform="translate(988,679)" d="m0 0h10l2 1v82l-1 1h-9l-1-1v-5l-11 6h-17v-3h15l8-3 3-3h3l1 6h8v-79l-9 1v28h-4l-2-3 2-1 1-26z" fill="#969696"/>
<path transform="translate(223,270)" d="m0 0h4v255h-1l-1-252z" fill="#8E8E8E"/>
<path transform="translate(1573,413)" d="m0 0h8v83h-12l-1-5-2-1v2h-4v2h-4v2h-16l-7-2v-2h-4v-2h-2v-2h-2v-2h-2l1-4 3 3v2l5 2 5 3 7 1h8l10-3 4-4h3v7h9v-79h-7z" fill="#8E8E8E"/>
<path transform="translate(1327,813)" d="m0 0h12v83h-12v-6l-2-1 4-2 1 7h8v-79h-9v29l-5-1-6-4-13-1h-8l1-2h20l9 6z" fill="#989898"/>
<path transform="translate(1121,546)" d="m0 0h11l1 1v82h-12l-1-5-4 3-4-1 8-6h3v7l8-1 1-78h-8l-1 3v25l-3 1-2-2 2-1v-27z" fill="#AEAEAE"/>
<path transform="translate(945,552)" d="m0 0 1 3h2v71h10v3h-12l-1-1z" fill="#B4B4B4"/>
<path transform="translate(800,690)" d="m0 0 2 3 5 24 2 24 1 28v17l-1 28-2 23-2 11h-1v-12l1-1 1-22h2l-1-71-1-1v-22h-2l-1-12-1-1-1-7-1-1z" fill="#8F8F8F"/>
<path transform="translate(1440,413)" d="m0 0h3v83h-12v-6l-7 4-4-1 10-7h2v7h9z" fill="#C6C6C5"/>
<path transform="translate(240,954)" d="m0 0 17 2 26 2 16 1h54l25-1 1 3h-104v-2h-20l-1-1-11-1z" fill="#8E8E8E"/>
<path transform="translate(1217,569)" d="m0 0h11l1 1v5l3-1v2l-4 1v-6h-10l1 55h8l1-33 2-5h1v6h-2v35h-13v-59z" fill="#999"/>
<path transform="translate(1358,411)" d="m0 0h8l5 5-1 7-4 4h-6l-6-4v-8z" fill="#040405"/>
<path transform="translate(761,898)" d="m0 0h7l-4 3-11 2h-174v-2h169l1-1 11-1z" fill="#8E8E8E"/>
<path transform="translate(1175,836)" d="m0 0h12v6l5-4 4 1-9 6-1-1v-6h-9l1 56h8v-30h1v32h-12z" fill="#8F8F8F"/>
<path transform="translate(1106,411)" d="m0 0h8l5 8-3 6-4 2h-6l-4-4v-10z" fill="#212122"/>
<path transform="translate(1196,702)" d="m0 0h9l1 1v5l5-1-3 4-3-1v-6l-9 1v55h9l1-33 2-3v38l-1 1h-11l-1-1v-58z" fill="#AEAEAE"/>
<path transform="translate(957,583)" d="m0 0 2 2 38 1 1 1v10l-1 1-39 1v-3h37v-7l-36-1-2-2z" fill="#ADADAD"/>
<path transform="translate(946,417)" d="m0 0h12v52h-1l-1-50h-10l1 2 1 53-3-2v-54z" fill="#929292"/>
<path transform="translate(1497,712)" d="m0 0 3 2 4 8v15l-1 1h-45l-1 2v-4l2-1h44l-3-16-3-5z" fill="#B4B4B4"/>
<path transform="translate(1064,723)" d="m0 0h2v40h-12v-4l-8 3-1 1h-18l1-3h14l9-2v-2h4l1 4h7z" fill="#C3C3C3"/>
<path transform="translate(1597,449)" d="m0 0 1 3-3 12 2 12 5 8 7 6 5 2 7 1h12v3h-16l-7-2v-2h-4v-2h-2v-2h-2v-2l-4-2-3-4-1-5-1-1v-19z" fill="#B3B3B3"/>
<path transform="translate(1102,836)" d="m0 0h12v39l-2-3v-33l-9-1 1 38 4 12h-2v-2h-2l-2-5z" fill="#969695"/>
<path transform="translate(1492,744)" d="m0 0 4 1 4 4v5l-7 7h-6v2h-20l-7-3-8-6 1-3 7 6 10 3h14l9-3 5-4-3-6-4 2-7 4-3-1 1-2 6-2z" fill="#B7B7B7"/>
<path transform="translate(1258,436)" d="m0 0 3 1-1 56h11l-1 3h-12z" fill="#A2A2A2"/>
<path transform="translate(1249,702)" d="m0 0h20l9 4 5 5-1 4-4-6-5-3-5-1h-17l-10 3-3 2 2 7 11-5h12v1l-9 1-10 4-4 1-3-3-2-4 1-4 7-4z" fill="#B9B9B8"/>
<path transform="translate(1506,452)" d="m0 0 2 1v43h-12l-1-4-4 2-4-1 9-6 2 1-1 5h9z" fill="#CFCFCE"/>
<path transform="translate(1356,436)" d="m0 0 3 1-1 56 10-1v4h-12z" fill="#A1A1A1"/>
<path transform="translate(1029,436)" d="m0 0 3 1-1 56h10v3h-12z" fill="#CACACA"/>
<path transform="translate(1113,436)" d="m0 0h3v60h-12v-3h10z" fill="#C9C9C8"/>
<path transform="translate(495,780)" d="m0 0h1v80l-1 1-1 14h-2v10l-3 2 1-7 3-25 1-10z" fill="#969696"/>
<path transform="translate(1468,712)" d="m0 0h14l8 6 4 7-1 3-6 1h-26l-5-2 3-8 6-5zm3 1-9 5-4 6v3h33v-4h-2v-4h-2v-2h-2v-2h-6v-2z" fill="#9A9A9A"/>
<path transform="translate(1298,573)" d="m0 0 4 1 4 6 2 4v45h-12l-1-4-3-1 2-2h3l1 4 8 1-1-43-4-8z" fill="#A6A6A6"/>
<path transform="translate(1167,721)" d="m0 0h11l1 1v32l-6 4-1 1h-5l5-4 4-3v-28l-9-1v25l-4 2-3-1 5-3 1-24z" fill="#939393"/>
<path transform="translate(245,656)" d="m0 0h6l-2 3-7 1-6 4-12 12-6 12-2 6-1 7-3 3 1-9 6-16 7-9 10-10 3-2z" fill="#C1C1C0"/>
<path transform="translate(1412,715)" d="m0 0 4 2 4 5 2 6v9l-3 7-5 6-6 3h-11l-8-5-2-4h2v2h2v2l9 3 5-1 9-3 6-12v-6l-2-2-2-7z" fill="#B6B6B6"/>
<path transform="translate(1032,735)" d="m0 0h21v1l-18 1-7 3v8l3 3h12l6-4 5-7 1 3-6 8-7 3h-9l-6-3-3-5 1-5 5-5z" fill="#B7B7B6"/>
<path transform="translate(1373,740)" d="m0 0 2 2 3 8 8 7 9 3h13l8-3 3-3h2l-1 4-3 1-1 2-7 2h-17l-9-5-8-8-3-5z" fill="#9E9E9E"/>
<path transform="translate(959,827)" d="m0 0h21l10 2 10 6 5 6 1 4-4-3-3-5-5-3-7-3-29-1-1 2 1-4z" fill="#9D9D9D"/>
<path transform="translate(1338,816)" d="m0 0h1v80h-12v-6l-2-1 4-2 1 7h8z" fill="#8E8E8E"/>
<path transform="translate(1525,482)" d="m0 0 4 3v2l5 2 5 3 7 1h8l10-3 4-3 2 1-1 3-3-1v2h-4v2h-4v2h-16l-7-2v-2h-4v-2h-2v-2h-2v-2h-2z" fill="#ADADAD"/>
<path transform="translate(1198,440)" d="m0 0 3 1-8 7-3 7-1 5v10l4 11 4 5 6 4 4 1 1 3-5-1-5-3-9-9v-6h-2v-20l5-9z" fill="#B1B1B0"/>
<path transform="translate(950,707)" d="m0 0 3 1-6 5-5 10-1 13 3 11 6 8 10 5v1h-5l-5-2v-2h-2l-5-6-4-10v-19l5-9z" fill="#9C9C9C"/>
<path transform="translate(1264,852)" d="m0 0 2 1v43h-12v-4l-3 2-4-1 6-4h3l1 5h6l1-3z" fill="#929292"/>
<path transform="translate(1358,723)" d="m0 0 2 1v39h-12l-1-3h10z" fill="#C3C3C2"/>
<path transform="translate(1392,440)" d="m0 0 3 1-7 6-4 10v17l5 10 8 7-3 1-9-9-4-8v-18l4-10z" fill="#AFAFAE"/>
<path transform="translate(1125,439)" d="m0 0 2 1 13 30 7 17 1 4-3-3-4-7v-4h-2v-6h-2l-3-8-4-10-5-9z" fill="#C7C7C6"/>
<path transform="translate(1315,724)" d="m0 0h1v39h-12v-3h9l1-34z" fill="#C3C3C2"/>
<path transform="translate(162,693)" d="m0 0 1 2-4 25-3 34-2 1v-11h2v-24l1-1 1-14 1-1 1-9z" fill="#ACACAB"/>
<path transform="translate(1392,702)" d="m0 0h19l6 4 2 3-4-2-10-3-11 1-6 2-6 4-6 8-2 5-2-3 5-8 9-9z" fill="#B0B0B0"/>
<path transform="translate(1085,460)" d="m0 0 2 1v35h-12v-3h10z" fill="#CBCBCA"/>
<path transform="translate(987,754)" d="m0 0h3l1 6 9-1-1 4h-9l-1-1v-5l-11 6h-17v-3h15l8-3z" fill="#aaa"/>
<path transform="translate(1622,443)" d="m0 0 10 2 5 4 5 8-1 4-2 1h-32v-1l31-1v-5l-6-6-4-2-10-1z" fill="#959595"/>
<path transform="translate(1384,846)" d="m0 0h6l10 9 2 4v14l-6 9-2 2h-3l2-4h2l2-4 2-2 1-9-1-7-9-9-6-2z" fill="#C1C1C1"/>
<path transform="translate(1017,573)" d="m0 0 3 1-6 5-4 7-2 9 1 13 4 8 9 8-3 1-9-9-2-1-2-7v-18l4-10z" fill="#B5B5B5"/>
<path transform="translate(1217,702)" d="m0 0h11l1 1v11l-1 1-11 1-8 8-1-2 6-7 5-2 7-1v-9l-13 4-2-1z" fill="#C4C4C4"/>
<path transform="translate(1337,438)" d="m0 0 5 1 1 5-4 6-5-1-6-2h-13l-4 4v5l1 2-3-1-1-7 5-5 12-1 7 1 7 3 2-7z" fill="#9E9E9E"/>
<path transform="translate(1273,720)" d="m0 0 2 2v6l-4 1h-18l-10 3-5 5-2 5h-1v-6l6-6 6-3 25-1z" fill="#939393"/>
<path transform="translate(1456,707)" d="m0 0 3 1-5 4-5 9-1 4v14l3 11-4-4-2-3v-21l4-6 3-5z" fill="#A9A9A8"/>
<path transform="translate(967,712)" d="m0 0h10l10 9 2 5v13l-5 8-3 3-2-1 5-5 1-4h2l-1-16-8-8-4-2-7-1z" fill="#BABABA"/>
<path transform="translate(1569,413)" d="m0 0 3 1-1 29-5-1-1-2h3v-26z" fill="#969696"/>
<path transform="translate(841,902)" d="m0 0 1 3-6 11-6 8-8 8-5 3-9 5h-5l2-2 12-6 10-8 8-11z" fill="#CECECD"/>
<path transform="translate(1556,445)" d="m0 0 4 1 5 5 4 5 2 10-3 9-3 5h-3l3-3 2-6v-12l-4-6-4-4-4-2z" fill="#A1A1A1"/>
<path transform="translate(800,690)" d="m0 0 2 3 5 24 1 10v15l-2-1v-22h-2l-1-12-1-1-1-7-1-1z" fill="#B2B2B2"/>
<path transform="translate(1147,589)" d="m0 0 1 4v12l4 10 5 6 9 5-4 1-6-4-6-6-5-10v-16z" fill="#C8C8C7"/>
<path transform="translate(946,893)" d="m0 0 4 1h38l-1 2h-41z" fill="#989898"/>
<path transform="translate(1040,579)" d="m0 0 5 1 6 5 3 6-1 4h-35l-1-4 2 2h32l-2-6-4-4-5-3z" fill="#8E8E8E"/>
<path transform="translate(1358,844)" d="m0 0 4 1-6 9-1 3v18l4 8-1 2-4-4-2-6v-18l3-7 2-2z" fill="#AEAEAD"/>
<path transform="translate(1533,438)" d="m0 0 4 1-6 4-6 7-3 9v12l3 11-3-3-2-3v-23l6-8z" fill="#B6B6B6"/>
<path transform="translate(1030,702)" d="m0 0h21l6 4 7 7v6l-2-2-2-5-6-5-5-2-12-1-7 1z" fill="#bbb"/>
<path transform="translate(1422,679)" d="m0 0h10l-1 2-8 1-1 28-3-1 1-3v-25z" fill="#9C9C9C"/>
<path transform="translate(1180,579)" d="m0 0 5 1 5 4 4 7-1 4h-35v-1h33l-2-7-4-4-5-3z" fill="#8E8E8E"/>
<path transform="translate(1326,702)" d="m0 0h18l8 5 2 4-8-5-7-2h-7l-11 3-6 4-1-3h3l1-3z" fill="#B4B4B4"/>
<path transform="translate(988,679)" d="m0 0 2 1v30h-4l-2-3 2-1 1-26z" fill="#F1F1F0"/>
<path transform="translate(1238,569)" d="m0 0h11l1 1v11l-1 1-10 1-6 4-2 1 2-4 3-3 5-2 7-1v-7h-11z" fill="#B2B2B1"/>
<path transform="translate(1462,463)" d="m0 0 3 1-6 6-1 4v7l3 7 8 5-4 1-7-4-2-5v-16h2v-2h2v-2h2z" fill="#AEAEAD"/>
<path transform="translate(1273,735)" d="m0 0 2 1v8l-4 6-4 3-4 1h-10l-5-3 3-1 1 1h12l6-4 2-2v-9z" fill="#ADADAD"/>
<path transform="translate(240,954)" d="m0 0 17 2 21 2v2h6v1h-9v-2h-20l-1-1-11-1z" fill="#B2B2B2"/>
<path transform="translate(853,861)" d="m0 0h1v10l-1 1-1 7-3 7-3 12h-2v4h-2l1-5 6-18z" fill="#BEBEBE"/>
<path transform="translate(1167,721)" d="m0 0h11l1 1v32l-6 4-1 1h-5l5-4 4-3h2l-1-29-10-1z" fill="#E8E8E7"/>
<path transform="translate(995,490)" d="m0 0 3 1-3 3-6 2h-20l-1-3h17l7-2z" fill="#ABABAB"/>
<path transform="translate(1144,888)" d="m0 0 4 1 1 5 1 2-5-1-1-4-3 3-4 2h-20l-1-2h16l9-3z" fill="#A3A3A3"/>
<path transform="translate(1026,727)" d="m0 0h26l1 2-25 1-9 3 4-4z" fill="#9B9B9B"/>
<path transform="translate(1263,596)" d="m0 0 3 1-6 5-2 7 1 9 9 9-5-1-7-7v-14l4-6z" fill="#AFAFAE"/>
<path transform="translate(1298,457)" d="m0 0 2 2 2 4 8 4 11 2 2 2h-11v-2h-6v-2l-5-1-4-5z" fill="#BCBCBC"/>
<path transform="translate(1223,838)" d="m0 0h5l-2 2-7 3 1 6 3 1 8-4h5l-1 2-9 3-1 1h-6l-1-4h-2v-5l3-3z" fill="#B1B1B1"/>
<path transform="translate(1171,690)" d="m0 0 4 1 4 4v3h-2v2h-2l-2 4-3 1-7-6-4-2 4-1 7 5 4-2 2-4z" fill="#C6C6C6"/>
<path transform="translate(1253,702)" d="m0 0h16l9 4 5 5-1 4-4-6-5-3-5-1-17-1z" fill="#A3A3A3"/>
<path transform="translate(763,656)" d="m0 0h5l10 4 10 8 4 4-1 2-6-6-5-3-9-5-6-2z" fill="#ACACAC"/>
<path transform="translate(1182,442)" d="m0 0h1v6h-2l-1 5-4 8-3 9-4 6-1-2z" fill="#C3C3C3"/>
<path transform="translate(1215,443)" d="m0 0 10 2 7 6 3 6v4l-3-1-1-4-3-5-6-4-10-1z" fill="#9A9A9A"/>
<path transform="translate(1095,579)" d="m0 0 4 1-3 2h-3v2h-2v2h-2v2h-2v4h-2v14l-2-3v-9l4-8 4-5z" fill="#BABABA"/>
<path transform="translate(1597,449)" d="m0 0 1 3-3 12 2 14-4-4v-19z" fill="#AFAFAF"/>
<path transform="translate(806,813)" d="m0 0h2v15l-3 20h-1v-12l1-1z" fill="#AEAEAD"/>
<path transform="translate(1133,748)" d="m0 0h5l1 1 21 1-2 2-4 1h-10l-11-4z" fill="#BEBEBE"/>
<path transform="translate(476,919)" d="m0 0 1 4-15 15-5 3-5 1 4-4 10-7 8-9z" fill="#C1C1C1"/>
<path transform="translate(1219,865)" d="m0 0 3 1-4 4-2 10 3 8 3 4-4-1-4-6v-13l4-6z" fill="#BFBFBF"/>
<path transform="translate(221,677)" d="m0 0h2l-2 6-3 5-2 6-1 7-3 3 1-9 6-16z" fill="#D1D1D0"/>
<path transform="translate(1172,441)" d="m0 0v3l-9 22-4 9h-1v-6h2v-4h2l1-5 3-9 5-9z" fill="#BCBCBC"/>
<path transform="translate(1410,444)" d="m0 0 9 1 6 4 5 6 1 8h-2l-2-7-3-5-8-4-8-1z" fill="#B3B3B3"/>
<path transform="translate(370,958)" d="m0 0h8l1 3h-26l1-2z" fill="#A5A5A5"/>
<path transform="translate(1429,838)" d="m0 0 4 1-8 6-2 5v12l-3-2v-13z" fill="#999"/>
<path transform="translate(1052,757)" d="m0 0h2v2l-8 3-1 1h-18l1-3h14z" fill="#A0A0A0"/>
<path transform="translate(1525,482)" d="m0 0 4 3v2l5 2 5 3 6 1 1 3-5-1-6-1v-2h-4v-2h-2v-2h-2v-2h-2z" fill="#BEBEBE"/>
<path transform="translate(959,702)" d="m0 0h19l6 4-2 1-10-3h-7l-9 3-3-1z" fill="#ACACAC"/>
<path transform="translate(1121,551)" d="m0 0h2v25l-3 1-2-2 2-1z" fill="#8E8E8E"/>
<path transform="translate(227,896)" d="m0 0h4v2h2v2l6 2 14 6v1l-7-1-9-3v-2l-5-2z" fill="#B0B0B0"/>
<path transform="translate(1252,735)" d="m0 0h20v1l-16 1-7 3-2 6 1 4-3-2v-7l4-4z" fill="#A8A8A8"/>
<path transform="translate(1465,702)" d="m0 0h19l5 3-3 1-8-2-11 1-5 2-3-1z" fill="#ACACAC"/>
<path transform="translate(1271,757)" d="m0 0v3l-5 3h-18l-1-2 3-1h13z" fill="#ABABAB"/>
<path transform="translate(1073,604)" d="m0 0 7 14 7 6 4 2-4 1-6-4-4-4-5-11z" fill="#C2C2C1"/>
<path transform="translate(1044,838)" d="m0 0 4 1-10 6-5 8-3 10h-1v-8l5-9 6-6z" fill="#BDBDBD"/>
<path transform="translate(1123,690)" d="m0 0 3 1-10 9-5 9-2 8h-1v-8l5-9z" fill="#B0B0B0"/>
<path transform="translate(1029,868)" d="m0 0h1l3 12 6 8 9 5-4 1-6-4-5-5-4-8z" fill="#B8B8B7"/>
<path transform="translate(1016,734)" d="m0 0 1 3-1 3v9l3 6 8 5-4 1-6-4-3-5v-16h2z" fill="#B1B1B1"/>
<path transform="translate(549,573)" d="m0 0h1v6l-5 9-4 4-2 4-3-1 8-11z" fill="#C3C3C2"/>
<path transform="translate(1175,836)" d="m0 0h12v6l5-4 4 1-9 6-1-1v-6l-11 1z" fill="#A6A6A6"/>
<path transform="translate(1164,758)" d="m0 0 2 1v2l-7 2h-21v-3l6 1h9l10-2z" fill="#A2A2A2"/>
<path transform="translate(1299,479)" d="m0 0 5 1-4 1-2 4v3l10 5v1h-6l-6-4-1-5z" fill="#B4B4B4"/>
<path transform="translate(1392,702)" d="m0 0h19l6 4 2 3-4-2-10-3h-13z" fill="#AEAEAE"/>
<path transform="translate(1258,576)" d="m0 0 3 4 3 3 7-4h5l-3 3-6 2-1 2h-5l-3-5z" fill="#B9B9B9"/>
<path transform="translate(1412,715)" d="m0 0 4 2 4 5 2 6v9l-2 4v-12l-2-2-2-7z" fill="#AEAEAE"/>
<path transform="translate(1145,870)" d="m0 0h1v5l-4 6-5 4-7 1 1-2 6-2 5-5 2-6z" fill="#C1C1C1"/>
<path transform="translate(1310,493)" d="m0 0h19l-1 3h-18z" fill="#B2B2B2"/>
<path transform="translate(431,891)" d="m0 0v3l-7 7-11 6-4-1 15-8z" fill="#BDBDBD"/>
<path transform="translate(212,864)" d="m0 0 3 2 1 7 4 10 1 5-3-3-4-10-2-6z" fill="#B1B1B0"/>
<path transform="translate(1233,742)" d="m0 0h2l2 9 3 5 7 4v1h-5l-7-7-2-6z" fill="#CACAC9"/>
<path transform="translate(1054,611)" d="m0 0 4 2 4 4-2 6-5 3-1 1h-5l1-2 7-4 2-3z" fill="#BDBDBD"/>
<path transform="translate(1161,490)" d="m0 0 1 4h-2v2h-12l-1-3 2-2v2l11-1z" fill="#CFCFCE"/>
<path transform="translate(1452,751)" d="m0 0 8 6 10 3 1 3-5-1-6-2-8-6z" fill="#C6C6C6"/>
<path transform="translate(1456,707)" d="m0 0 3 1-5 4-5 9-2 5-2 1v-5l4-6 3-5z" fill="#CECECD"/>
<path transform="translate(1009,469)" d="m0 0h1v8l-5 9-4 4-3-1 7-8 3-9z" fill="#C6C6C6"/>
<path transform="translate(1289,436)" d="m0 0h2v12h-11l2-3h8z" fill="#AFAFAF"/>
<path transform="translate(1196,702)" d="m0 0h9l1 1v5l5-1-3 4-3-1v-6l-10 1z" fill="#A3A3A2"/>
<path transform="translate(1556,445)" d="m0 0 4 1 8 8v5l-2-1-3-5-4-4-4-2z" fill="#CACAC9"/>
<path transform="translate(1423,880)" d="m0 0 5 1 4 2-4 1-5-2-2 8 3 1-3 1-3-3 2-6z" fill="#B0B0B0"/>
<path transform="translate(987,830)" d="m0 0 7 1 8 6 4 6-1 2-3-3-3-5-5-3-7-3z" fill="#bbb"/>
<path transform="translate(1395,712)" d="m0 0h10v1l-7 1-6 4-7 6 2-5z" fill="#B7B7B6"/>
<path transform="translate(1210,493)" d="m0 0h17l-1 3h-16z" fill="#AFAFAE"/>
<path transform="translate(1462,438)" d="m0 0h5l-5 4-1 5 4 4-5 1-2-4v-6h2v-2h2z" fill="#AFAFAE"/>
<path transform="translate(761,898)" d="m0 0h7l-4 3-14 2-1-3 11-1z" fill="#B8B8B8"/>
<path transform="translate(1e3 823)" d="m0 0 4 1 5 3 5 5 2 4-1 3-6-8-6-5z" fill="#C6C6C6"/>
<path transform="translate(958,748)" d="m0 0 10 2v2h5v-2h6l-3 3h-11l-6-3z" fill="#BBBBBA"/>
<path transform="translate(835,641)" d="m0 0 5 5 4 7 2 6-1 4-7-15-3-5z" fill="#C0C0C0"/>
<path transform="translate(1107,579)" d="m0 0 5 1 7 6 2 4-1 3-6-8-7-5z" fill="#C0C0C0"/>
<path transform="translate(1040,579)" d="m0 0 5 1 6 5 2 4-1 4-5-8-7-5z" fill="#C3C3C3"/>
<path transform="translate(183,573)" d="m0 0 2 2 9 18-6-5-3-6v-3h-2z" fill="#BDBDBD"/>
<path transform="translate(1186,571)" d="m0 0h5l11 11v6l-6-9-6-5z" fill="#AEAEAE"/>
<path transform="translate(950,480)" d="m0 0 5 5 6 5 5 2 1 2-5-1-4-1-7-8z" fill="#A2A2A2"/>
<path transform="translate(1521,456)" d="m0 0 1 3v12l3 11-3-3-2-3v-19z" fill="#9C9C9C"/>
<path transform="translate(1125,439)" d="m0 0 2 1 7 16-1 3-8-15z" fill="#B7B7B7"/>
<path transform="translate(1368,414)" d="m0 0 3 2-1 7-4 4h-6l-1-2 8-2 1-7z" fill="#B7B7B7"/>
<path transform="translate(1102,413)" d="m0 0h2v8l1 2 8 2-1 2h-6l-4-4z" fill="#B4B4B4"/>
<path transform="translate(1358,411)" d="m0 0h8v1l-7 1-2 2v6l2 4-4-1-1-1v-8z" fill="#C0C0C0"/>
<path transform="translate(943,749)" d="m0 0 3 1 4 5 10 5v1h-5l-5-2v-2h-2l-5-6z" fill="#C8C8C7"/>
<path transform="translate(1373,740)" d="m0 0 2 2 3 8 7 6-1 3-9-9-3-5z" fill="#C8C8C7"/>
<path transform="translate(1032,735)" d="m0 0h21v1l-18 1-7 3-2 1 2-4z" fill="#9A9A9A"/>
<path transform="translate(1468,712)" d="m0 0h14l3 3h-6v-2l-8 1-5 3-2-1z" fill="#BEBEBE"/>
<path transform="translate(950,707)" d="m0 0 3 1-6 5-5 10h-2l-1 3 1-5 4-8z" fill="#CBCBCA"/>
<path transform="translate(1030,702)" d="m0 0h17l2 2h-12l-7 1z" fill="#979797"/>
<path transform="translate(1180,579)" d="m0 0 5 1 5 4 3 5v4h-2l-2-6-4-4-5-3z" fill="#bbb"/>
<path transform="translate(1620,493)" d="m0 0h13v3h-16v-2z" fill="#B5B5B5"/>
<path transform="translate(1404,493)" d="m0 0h14v3h-14z" fill="#B2B2B2"/>
<path transform="translate(399,956)" d="m0 0 3 1-1 2h-22v-1z" fill="#ADADAD"/>
<path transform="translate(1478,444)" d="m0 0h6l1 2-10 1-7 3-3-1 6-4z" fill="#A3A3A3"/>
<path transform="translate(1335,712)" d="m0 0 5 1 6 5 2 4-1 4-2-4-3-5-7-3z" fill="#AEAEAE"/>
<path transform="translate(1008,608)" d="m0 0 6 9 8 7-3 1-9-9-2-1z" fill="#A4A4A4"/>
<path transform="translate(194,593)" d="m0 0 11 7 5 3-4 1-12-8z" fill="#B7B7B7"/>
<path transform="translate(1471,493)" d="m0 0h14v3h-14z" fill="#ABABAA"/>
<path transform="translate(1615,445)" d="m0 0h2l-2 4-6 4-2 4v4h-2l1-7 6-7z" fill="#A7A7A7"/>
<path transform="translate(240,954)" d="m0 0 17 2v2l4 1h-6l-1-1-11-1z" fill="#B9B9B8"/>
<path transform="translate(1247,727)" d="m0 0 4 1-11 6-3 4-2 4v-6l6-6z" fill="#ABABAB"/>
<path transform="translate(1044,712)" d="m0 0 5 2 4 5 1 7-2-1-2-6-3-3-4-2z" fill="#C9C9C9"/>
<path transform="translate(245,656)" d="m0 0h6l-2 3-7 1-4 2-3-1 4-3z" fill="#ABABAB"/>
<path transform="translate(1646,482)" d="m0 0 3 1-1 4-5 5-4 2-4-1 2-2 7-3 2-2z" fill="#ABABAB"/>
<path transform="translate(987,699)" d="m0 0h2l1 11h-4l-2-3 2-1z" fill="#C1C1C0"/>
<path transform="translate(818,931)" d="m0 0 2 1-4 4-8 4h-5l2-2 12-6z" fill="#ADADAD"/>
<path transform="translate(1453,873)" d="m0 0 4 2 1 1-1 7-4 3-4-1 6-4v-5z" fill="#9F9F9F"/>
<path transform="translate(1054,740)" d="m0 0 1 3-6 8-6 1 1-2 5-3z" fill="#CDCDCD"/>
<path transform="translate(946,624)" d="m0 0 2 2h10v3h-12l-1-4z" fill="#C2C2C2"/>
<path transform="translate(534,596)" d="m0 0 2 1-5 5-4 2h-5l3-3z" fill="#BFBFBF"/>
<path transform="translate(1070,838)" d="m0 0 5 1 5 3 5 5-1 3-5-6-9-5z" fill="#C1C1C0"/>
<path transform="translate(961,760)" d="m0 0 15 1-1 2h-14z" fill="#989898"/>
<path transform="translate(1419,754)" d="m0 0h2l-1 4-3 1-1 2-9 2 1-3 8-3z" fill="#BDBDBC"/>
<path transform="translate(1464,748)" d="m0 0 5 1 12 3v1h-10l-7-4z" fill="#AEAEAE"/>
<path transform="translate(1131,698)" d="m0 0 3 1-11 11v-3l7-8z" fill="#C1C1C0"/>
<path transform="translate(228,608)" d="m0 0h8l1 2-8 3-3-1 3-1z" fill="#B2B2B2"/>
<path transform="translate(1253,889)" d="m0 0h3l2 7h-4v-4l-3 2-4-1z" fill="#A4A4A4"/>
<path transform="translate(1114,875)" d="m0 0 2 1 3 5 2 2 6 1v2l-7-1-5-5z" fill="#B7B7B7"/>
<path transform="translate(1018,845)" d="m0 0 3 3v18l-3 2z" fill="#ACACAB"/>
<path transform="translate(1275,760)" d="m0 0h10v3h-10z" fill="#B7B7B7"/>
<path transform="translate(986,755)" d="m0 0h3v2l-11 6-3-1 1-2 8-3z" fill="#CACAC9"/>
<path transform="translate(763,656)" d="m0 0h5l9 4 1 3-6-2-9-4z" fill="#BBBBBA"/>
<path transform="translate(1193,611)" d="m0 0 4 2 5 5-2 4-4 1 2-3-1-4-4-3z" fill="#BBBBBA"/>
<path transform="translate(1342,485)" d="m0 0 1 3-4 2v2h-4v2l-4-1 1-2 7-3z" fill="#B7B7B7"/>
<path transform="translate(1549,444)" d="m0 0 5 1v1l-8 1-5 3-3-1 5-4z" fill="#A8A8A8"/>
<path transform="translate(493,870)" d="m0 0h1v5h-2v10l-3 2 2-14h2z" fill="#BCBCBC"/>
<path transform="translate(1248,750)" d="m0 0 15 2v2h-10l-5-3z" fill="#B4B4B4"/>
<path transform="translate(1217,702)" d="m0 0h10l-1 2-11 2-4 1 2-3z" fill="#A5A5A5"/>
<path transform="translate(1147,589)" d="m0 0 1 4-1 12-2-4v-10z" fill="#A9A9A9"/>
<path transform="translate(1429,838)" d="m0 0 4 1-8 6-5 5 1-4z" fill="#BEBEBE"/>
<path transform="translate(1419,738)" d="m0 0 1 4-4 6-2 2-4-1 5-3z" fill="#C6C6C6"/>
<path transform="translate(1152,617)" d="m0 0 9 6 5 3-4 1-6-4-4-4z" fill="#A6A6A6"/>
<path transform="translate(1568,492)" d="m0 0h2v2h11v2h-12z" fill="#FFFFFE"/>
<path transform="translate(1429,487)" d="m0 0h2v3l-7 4-4-1z" fill="#C6C6C6"/>
<path transform="translate(1228,449)" d="m0 0 4 2 3 6v4l-3-1-1-4-3-5z" fill="#BEBEBE"/>
<path transform="translate(1423,448)" d="m0 0 5 4 3 6v5h-2l-2-7-3-5z" fill="#B2B2B2"/>
<path transform="translate(1051,445)" d="m0 0h3v3l-5 2-6 5 2-5z" fill="#BABABA"/>
<path transform="translate(1327,887)" d="m0 0h2l1 7 3 2h-6v-6l-2-1z" fill="#AFAFAF"/>
<path transform="translate(1398,875)" d="m0 0 1 3-5 6h-3l2-4h2l2-4z" fill="#D9D9D8"/>
<path transform="translate(853,861)" d="m0 0h1v10l-3 7-1-4z" fill="#A7A7A6"/>
<path transform="translate(1458,838)" d="m0 0h6l2 2v6l-2 4h-2l3-9-7-2z" fill="#AFAFAF"/>
<path transform="translate(1102,836)" d="m0 0h12l-1 4-1-1-10-1z" fill="#9A9A9A"/>
<path transform="translate(1052,757)" d="m0 0h2v2l-8 3-5 1 1-3z" fill="#C0C0BF"/>
<path transform="translate(1286,579)" d="m0 0 5 1 5 5-1 4-4-6-5-3z" fill="#ABABAB"/>
<path transform="translate(1525,482)" d="m0 0 4 3v2l3 1 2 4h-3v-2h-2v-2h-2v-2h-2z" fill="#E5E5E5"/>
<path transform="translate(1633,449)" d="m0 0 5 2 4 6-1 4-2-1-2-6z" fill="#C0C0BF"/>
<path transform="translate(1014,709)" d="m0 0h3l3 7 3 2-4 1-4-6z" fill="#BDBDBD"/>
<path transform="translate(1240,486)" d="m0 0 1 2h-2v2h-2v2h-4v2l-4-1 1-2h5v-2z" fill="#A3A3A3"/>
<path transform="translate(1496,487)" d="m0 0 2 1-1 5-2-3-4 4-4-1z" fill="#969696"/>
<path transform="translate(1472,468)" d="m0 0h3l-1 3-5 3-1 7-2-3 2-6z" fill="#9F9F9F"/>
<path transform="translate(1310,447)" d="m0 0 4 1-3 3v5l1 2-3-1-1-7z" fill="#C6C6C6"/>
</svg>
